<svg xmlns="http://www.w3.org/2000/svg" xmlns:xlink="http://www.w3.org/1999/xlink" width="880.23" height="552.6" viewBox="0 0 880.23 552.6">
  <defs>
    <clipPath id="clip-path">
      <path id="Path_7783" data-name="Path 7783" d="M360.1,157.465C270.712,103.575,228.48-62.5,90.645,36.73S9.81,339.6,141.945,388.831s302.356,21.5,350.028-69.954C574.1,162.388,419.946,193.737,360.1,157.465Z" transform="translate(-11.097 -5.738)"/>
    </clipPath>
  </defs>
  <g id="features_banner_icon" transform="translate(-485.865 -67.4)">
    <path id="Path_7753" data-name="Path 7753" d="M0,566.264s139.5-20.98,82.135-188.6C24.551,210.27,122.98,202.459,206.454,223.216c83.474,20.98,140.835,28.792,157.128-33.925S401.094-4.736,656.188,15.825V566.264Z" transform="translate(709.906 53.736)" fill="#f8f8fe"/>
    <g id="Group_3721" data-name="Group 3721">
      <path id="Path_7781" data-name="Path 7781" d="M360.1,157.465C270.712,103.575,228.48-62.5,90.645,36.73S9.81,339.6,141.945,388.831s302.356,21.5,350.028-69.954C574.1,162.388,419.946,193.737,360.1,157.465Z" transform="translate(735.804 148.099)" fill="#eaebfb"/>
      <g id="Group_3407" data-name="Group 3407" transform="translate(746.9 153.837)">
        <g id="Group_3406" data-name="Group 3406" clip-path="url(#clip-path)">
          <path id="Path_7782" data-name="Path 7782" d="M5.9,277.92s76.172-76.431,203.384-40.159S411.373,242.943,395.569,50.7c0,0,178.771,24.872,155.971,152.085C523.817,357.2,164.721,416.014,5.9,277.92Z" transform="translate(-19.364 65.791)" fill="#dfe0f3"/>
        </g>
      </g>
      <g id="Group_3415" data-name="Group 3415" transform="translate(798.209 233.019)">
        <path id="Path_7793" data-name="Path 7793" d="M101.327,39.668l-1.3-3.368-1.3,3.368A11.505,11.505,0,0,1,92,46.4h0a12.239,12.239,0,0,1,6.736,6.736l1.3,3.368,1.3-3.368a11.5,11.5,0,0,1,6.736-6.736h0A11.5,11.5,0,0,1,101.327,39.668Z" transform="translate(66.303 -36.3)" fill="#fff"/>
        <path id="Path_7794" data-name="Path 7794" d="M59.227,115.968l-1.3-3.368-1.3,3.368A11.5,11.5,0,0,1,49.9,122.7h0a12.239,12.239,0,0,1,6.736,6.736l1.3,3.368,1.3-3.368a11.5,11.5,0,0,1,6.736-6.736h0A12.239,12.239,0,0,1,59.227,115.968Z" transform="translate(-0.673 85.084)" fill="#fff"/>
        <path id="Path_7795" data-name="Path 7795" d="M183.359,107.232l-.777-2.332-.777,2.332a8.149,8.149,0,0,1-4.4,4.4h0a9.083,9.083,0,0,1,4.4,4.4l.777,2.332.777-2.332a8.149,8.149,0,0,1,4.4-4.4h0A7.4,7.4,0,0,1,183.359,107.232Z" transform="translate(202.164 72.835)" fill="#fff"/>
        <path id="Path_7796" data-name="Path 7796" d="M36.859,62.932,36.082,60.6,35.3,62.932a8.149,8.149,0,0,1-4.4,4.4h0a9.083,9.083,0,0,1,4.4,4.4l.777,2.332.777-2.332a8.149,8.149,0,0,1,4.4-4.4h0A6.285,6.285,0,0,1,36.859,62.932Z" transform="translate(-30.9 2.358)" fill="#fff"/>
      </g>
    </g>
    <ellipse id="Ellipse_44" data-name="Ellipse 44" cx="88" cy="13" rx="88" ry="13" transform="translate(901 579)" fill="#dfe0f3" opacity="0.62"/>
    <g id="Group_3414" data-name="Group 3414" transform="translate(718.15 171.874)">
      <g id="Group_3408" data-name="Group 3408">
        <path id="Path_7784" data-name="Path 7784" d="M182.139,24.359V98.976a11.61,11.61,0,0,1-11.659,11.659H11.659A11.61,11.61,0,0,1,0,98.976V24.359A11.61,11.61,0,0,1,11.659,12.7H170.48A11.61,11.61,0,0,1,182.139,24.359Z" transform="translate(0 -12.7)" fill="#c7cbe8"/>
      </g>
      <g id="Group_3410" data-name="Group 3410">
        <path id="Path_7785" data-name="Path 7785" d="M182.139,24.359v6.477H0V24.359A11.61,11.61,0,0,1,11.659,12.7H170.48A11.61,11.61,0,0,1,182.139,24.359Z" transform="translate(0 -12.7)" fill="#93b7fa"/>
        <g id="Group_3409" data-name="Group 3409" transform="translate(8.032 7.733)">
          <circle id="Ellipse_43" data-name="Ellipse 43" cx="2.332" cy="2.332" r="2.332" transform="translate(0 0.04)" fill="#fff"/>
          <path id="Path_7786" data-name="Path 7786" d="M11.564,18.056a2.332,2.332,0,1,1-2.332-2.332C10.527,15.465,11.564,16.5,11.564,18.056Z" transform="translate(2.945 -15.685)" fill="#fff"/>
          <path id="Path_7787" data-name="Path 7787" d="M15.264,18.032A2.332,2.332,0,1,1,12.932,15.7,2.175,2.175,0,0,1,15.264,18.032Z" transform="translate(8.832 -15.66)" fill="#fff"/>
        </g>
      </g>
      <path id="Path_7788" data-name="Path 7788" d="M47.4,57.841H10.873A2.044,2.044,0,0,1,8.8,55.768v-29.8A2.044,2.044,0,0,1,10.873,23.9H47.4a2.044,2.044,0,0,1,2.073,2.073V55.509A2.284,2.284,0,0,1,47.4,57.841Z" transform="translate(14 5.118)" fill="#fff"/>
      <g id="Group_3411" data-name="Group 3411" transform="translate(19.95 73.581)">
        <path id="Path_7789" data-name="Path 7789" d="M144.758,46.282H10.291A2.6,2.6,0,0,1,7.7,43.691h0A2.6,2.6,0,0,1,10.291,41.1H144.758a2.6,2.6,0,0,1,2.591,2.591h0A2.6,2.6,0,0,1,144.758,46.282Z" transform="translate(-7.7 -41.1)" fill="#fff"/>
      </g>
      <g id="Group_3412" data-name="Group 3412" transform="translate(72.804 54.149)">
        <path id="Path_7790" data-name="Path 7790" d="M112.3,38.782H30.691A2.6,2.6,0,0,1,28.1,36.191h0A2.6,2.6,0,0,1,30.691,33.6H112.3a2.6,2.6,0,0,1,2.591,2.591h0A2.6,2.6,0,0,1,112.3,38.782Z" transform="translate(-28.1 -33.6)" fill="#fff"/>
      </g>
      <g id="Group_3413" data-name="Group 3413" transform="translate(72.804 36.013)">
        <path id="Path_7791" data-name="Path 7791" d="M81.213,31.782H30.691A2.6,2.6,0,0,1,28.1,29.191h0A2.6,2.6,0,0,1,30.691,26.6H81.213A2.6,2.6,0,0,1,83.8,29.191h0A2.6,2.6,0,0,1,81.213,31.782Z" transform="translate(-28.1 -26.6)" fill="#fff"/>
      </g>
    </g>
    <g id="cloud">
      <path id="Path_7792" data-name="Path 7792" d="M145.4,34.978s5.959-6.736,9.327-9.845c6.477-5.441,13.732-15.286,37.568-8.032a46.712,46.712,0,0,1,5.441,2.073c2.073.777,8.55.777,15.027-4.4C223.386,6.479,227.272.261,241.781,0c16.841-.259,19.432,20.727,32.386,25.909,8.291,3.368,30.054,6.736,34.718,8.291Z" transform="translate(340.465 136.969)" fill="#e8e9f9"/>
      <path id="Path_7829" data-name="Path 7829" d="M145.4,34.978s5.959-6.736,9.327-9.845c6.477-5.441,13.732-15.286,37.568-8.032a46.712,46.712,0,0,1,5.441,2.073c2.073.777,8.55.777,15.027-4.4C223.386,6.479,227.272.261,241.781,0c16.841-.259,19.432,20.727,32.386,25.909,8.291,3.368,30.054,6.736,34.718,8.291Z" transform="translate(455.465 516.969)" fill="#e8e9f9"/>
      <path id="Path_7830" data-name="Path 7830" d="M145.4,18.7s3.186-3.6,4.988-5.265c3.464-2.909,7.343-8.174,20.089-4.295a24.978,24.978,0,0,1,2.909,1.108c1.108.416,4.572.416,8.035-2.355C187.1,3.464,189.18.139,196.938,0c9.005-.139,10.391,11.083,17.318,13.854,4.433,1.8,16.071,3.6,18.565,4.433Z" transform="translate(1095.497 251.106)" fill="#eaebfb"/>
    </g>
    <g id="Group_3417" data-name="Group 3417" transform="translate(1014.029 297.791)">
      <path id="Path_7797" data-name="Path 7797" d="M114.8,224.13h87.572a34.281,34.281,0,0,0,34.2-30.572L249.267,62.2H161.695l-1.814,76.172Z" transform="translate(-113.245 -59.868)" fill="#c5c9e6"/>
      <g id="Group_3416" data-name="Group 3416">
        <path id="Path_7798" data-name="Path 7798" d="M115.755,224.007c22.541-.777,45.081-1.3,67.363-1.555l16.841-.259H204.1c1.3,0,2.591-.259,3.886-.259a23.335,23.335,0,0,0,7.254-2.073,31.163,31.163,0,0,0,18.4-22.8,67.55,67.55,0,0,0,1.036-8.032l.777-8.291,1.555-16.841c1.036-11.141,2.332-22.282,3.368-33.681,2.332-22.282,4.923-44.822,7.514-67.1a2.27,2.27,0,0,1,2.332-1.814,2,2,0,0,1,1.814,2.073c-1.555,22.541-3.368,44.822-5.441,67.363-1.036,11.141-1.814,22.541-3.109,33.681l-1.555,16.841-.777,8.291c-.259,2.85-.518,5.441-1.036,8.809-2.332,12.177-10.882,23.059-22.541,27.463a27.8,27.8,0,0,1-8.809,2.332,28.159,28.159,0,0,1-4.664.259h-4.4l-16.841-.259c-22.541-.259-45.081-.777-67.363-1.555a1.451,1.451,0,0,1-1.3-1.555C114.459,224.785,114.977,224.007,115.755,224.007Z" transform="translate(-114.2 -61.3)" fill="#3d415b"/>
      </g>
      <line id="Line_20" data-name="Line 20" y2="93.013" transform="translate(51.559 166.594)" fill="none" stroke="#3d415b" stroke-miterlimit="10" stroke-width="2.496"/>
    </g>
    <g id="Group_3428" data-name="Group 3428" transform="translate(799.957 210.241)">
      <rect id="Rectangle_172" data-name="Rectangle 172" width="282.147" height="4.404" transform="translate(282.147 171.604) rotate(180)" fill="#3d415b"/>
      <path id="Path_7799" data-name="Path 7799" d="M137.723,168.2l2.85,10.882-14.509,4.4L121.4,170.273Z" transform="translate(111.326 196.316)" fill="#e3bc9a"/>
      <path id="Path_7800" data-name="Path 7800" d="M93.7,165.2v8.809h12.954l1.3-8.809Z" transform="translate(67.259 191.543)" fill="#e3bc9a"/>
      <g id="Group_3420" data-name="Group 3420" transform="translate(156.295 78.372)">
        <g id="Group_3418" data-name="Group 3418" transform="translate(0 12.965)">
          <path id="Path_7801" data-name="Path 7801" d="M184.976,78.666l-19.432,48.19-.518,1.036a7.261,7.261,0,0,1-6.736,4.664l-55.445-.518a4.092,4.092,0,0,1-4.145-4.145,3.924,3.924,0,0,1,3.368-3.886l54.927-8.032-7.254,5.7,13.214-50.263a11.658,11.658,0,1,1,22.541,5.959A4.378,4.378,0,0,0,184.976,78.666Z" transform="translate(-81.082 -62.761)" fill="#d8ac89"/>
          <path id="Path_7802" data-name="Path 7802" d="M119.363,86.418,100.45,85.9c-4.664,0-8.55,4.145-8.55,9.327h27.722Z" transform="translate(-91.9 -25.951)" fill="#d8ac89"/>
        </g>
        <g id="Group_3419" data-name="Group 3419" transform="translate(73.063)">
          <path id="Path_7803" data-name="Path 7803" d="M120.1,92.586l30.313,7.514,4.923-26.945A13.083,13.083,0,0,0,144.2,57.868h0c-6.218-.777-12.436,2.591-14.509,8.55Z" transform="translate(-120.1 -57.757)" fill="#7c6ef2"/>
        </g>
      </g>
      <path id="Path_7804" data-name="Path 7804" d="M197.925,91.5l-93.531,47.413a24.413,24.413,0,0,0-13.473,23.318l7,120.217h14.25L131.6,153.94l72.8-51.04Z" transform="translate(62.782 74.295)" fill="#303348"/>
      <path id="Path_7805" data-name="Path 7805" d="M141.669,29.041s25.909-8.809,39.641,15.8a14.807,14.807,0,0,0,2.85,4.145c2.85,3.368,8.55,9.327,15.027,11.141,25.391,7.773,41.2,55.7-9.068,59.849-62.958,5.441-80.836-7-72.027-32.127,6.218-17.877.518-30.572.518-30.572Z" transform="translate(102.716 -27.508)" fill="#282c3c"/>
      <path id="Path_7806" data-name="Path 7806" d="M150.133,52.9,136.66,58.859a21.737,21.737,0,0,0-12.954,20.209c.259,17.618,4.145,61.4,19.173,78.245h45.6c7-31.091,3.109-78.763,3.109-78.763A22.589,22.589,0,0,0,171.9,55.232Z" transform="translate(114.979 12.887)" fill="#583bf5"/>
      <g id="Group_3423" data-name="Group 3423" transform="translate(215.804 1.792)">
        <g id="Group_3422" data-name="Group 3422">
          <g id="Group_3421" data-name="Group 3421" transform="translate(8.372 15.027)">
            <path id="Path_7807" data-name="Path 7807" d="M142.413,82.2h0a8.7,8.7,0,0,1-9.586-7.514L129.2,45.673,146.559,43.6l3.627,28.759A8.805,8.805,0,0,1,142.413,82.2Z" transform="translate(-100.441 -18.728)" fill="#ddb28d"/>
            <path id="Path_7808" data-name="Path 7808" d="M145.822,82.709h-.777a21.032,21.032,0,0,1-23.577-18.136L118.1,39.441,160.59,34l3.368,25.132A20.989,20.989,0,0,1,145.822,82.709Z" transform="translate(-118.1 -34)" fill="#e3bc9a"/>
          </g>
          <path id="Path_7809" data-name="Path 7809" d="M170.654,58.513l-3.627,7.514s-4.923,4.145-6.218-6.218c-1.036-8.809-7.514-7.254-7.514-7.254S131.272,69.4,118.059,57.736C107.7,48.668,124.277,32.086,143.45,28.2l24.872,10.882Z" transform="translate(-114.869 -28.2)" fill="#282c3c"/>
          <path id="Path_7810" data-name="Path 7810" d="M134.037,47.784a7.038,7.038,0,1,0,6.218-7.773A6.858,6.858,0,0,0,134.037,47.784Z" transform="translate(-84.47 -9.439)" fill="#e3bc9a"/>
          <path id="Path_7811" data-name="Path 7811" d="M136.2,44.737c0,.777.777,1.3,1.3,1.036.777,0,1.3-.777,1.036-1.3,0-.777-.777-1.3-1.3-1.036A1.185,1.185,0,0,0,136.2,44.737Z" transform="translate(-80.933 -4.06)" fill="#fff"/>
        </g>
        <path id="Path_7812" data-name="Path 7812" d="M122.4,49.691,134.318,47.1s.518,5.182-5.959,6.218C123.177,53.836,122.4,49.691,122.4,49.691Z" transform="translate(-102.887 1.868)" fill="#fff"/>
      </g>
      <path id="Path_7813" data-name="Path 7813" d="M227.22,93.3h-45.6l-72.8,44.045a20.159,20.159,0,0,0-8.032,25.132L156.748,289.43l16.063-1.814L142.757,165.067c25.132-1.036,72.027-4.923,84.2-18.4C247.947,123.354,227.22,93.3,227.22,93.3Z" transform="translate(75.978 77.159)" fill="#3d415b"/>
      <g id="Group_3424" data-name="Group 3424" transform="translate(65.41 90.659)">
        <path id="Path_7814" data-name="Path 7814" d="M139.415,62.759l25.909,69.695H81.12l-24.1-65.808a3.055,3.055,0,0,1,2.85-4.145h79.54Z" transform="translate(-56.821 -62.5)" fill="#93b7fa"/>
        <path id="Path_7815" data-name="Path 7815" d="M88.7,62.6h4.145a5.313,5.313,0,0,1,4.923,3.368l24.354,66.327h-7.514Z" transform="translate(-6.106 -62.341)" fill="#a9c9fa"/>
        <path id="Path_7816" data-name="Path 7816" d="M72.259,96.236h77.986V89.5H66.3v.518A6.085,6.085,0,0,0,72.259,96.236Z" transform="translate(-41.742 -19.546)" fill="#82a7e7"/>
        <path id="Path_7817" data-name="Path 7817" d="M98.7,96.236h52.077a3.43,3.43,0,0,0,3.368-3.368h0a3.43,3.43,0,0,0-3.368-3.368H98.7Z" transform="translate(9.803 -19.546)" fill="#8eb6ec"/>
        <path id="Path_7818" data-name="Path 7818" d="M89.748,79.91c1.555,4.923-.259,9.845-4.4,11.141-3.886,1.3-8.55-1.555-10.1-6.218-1.555-4.923.259-9.845,4.4-11.141S88.193,75.247,89.748,79.91Z" transform="translate(-28.399 -45.193)" fill="#ecf2f5"/>
      </g>
      <g id="Group_3427" data-name="Group 3427" transform="translate(191.79 76.493)">
        <g id="Group_3425" data-name="Group 3425" transform="translate(0 13.306)">
          <path id="Path_7819" data-name="Path 7819" d="M198.835,78.315,179.4,127.283l-.518,1.036a7.351,7.351,0,0,1-7,4.664l-55.445-.259a4.092,4.092,0,0,1-4.145-4.145,4.4,4.4,0,0,1,3.627-4.145l54.927-8.032-7.254,5.7,13.214-51.04a11.751,11.751,0,0,1,22.8,5.7C199.095,77.538,199.095,78.056,198.835,78.315Z" transform="translate(-94.941 -62.168)" fill="#e3bc9a"/>
          <path id="Path_7820" data-name="Path 7820" d="M133.063,86.218,114.15,85.7c-4.664,0-8.55,4.4-8.55,9.586h27.722Z" transform="translate(-105.6 -24.731)" fill="#e3bc9a"/>
        </g>
        <g id="Group_3426" data-name="Group 3426" transform="translate(73.063)">
          <path id="Path_7821" data-name="Path 7821" d="M133.8,92.7l30.313,7.514,4.923-27.463A13.2,13.2,0,0,0,157.9,57.208h0a13.151,13.151,0,0,0-14.509,8.55Z" transform="translate(-133.8 -57.032)" fill="#7c6ef2"/>
        </g>
      </g>
      <path id="Path_7822" data-name="Path 7822" d="M136.289,170.959l-7,7-15.8,3.886a6.127,6.127,0,0,0-3.627,3.109l-.777,2.332a1.752,1.752,0,0,0,1.555,2.332l51.3-1.3a3.111,3.111,0,0,0,2.85-3.109L160.643,170.7l-7.773,1.814a10.131,10.131,0,0,1-7.773-.777l-2.85-1.555A5.161,5.161,0,0,0,136.289,170.959Z" transform="translate(91.514 198.479)" fill="#29323d"/>
      <path id="Path_7823" data-name="Path 7823" d="M107.889,167.059l-7,7-15.8,3.886a6.127,6.127,0,0,0-3.627,3.109l-.777,2.332a1.752,1.752,0,0,0,1.555,2.332l46.377-1.036a3.111,3.111,0,0,0,2.85-3.109l-1.3-14.768-5.7,1.814a10.131,10.131,0,0,1-7.773-.777l-2.85-1.555A5.161,5.161,0,0,0,107.889,167.059Z" transform="translate(46.333 192.275)" fill="#29323d"/>
    </g>
    <g id="Group_3429" data-name="Group 3429" transform="translate(826.83 325.254)">
      <path id="Path_7824" data-name="Path 7824" d="M50.32,97.423s21.5,0,17.1-22.023C67.42,75.4,44.879,77.732,50.32,97.423Z" transform="translate(-29.974 -66.332)" fill="#1db88d"/>
      <path id="Path_7825" data-name="Path 7825" d="M59.7,97.182s-21.763,0-17.1-22.282C42.343,74.9,65.143,76.973,59.7,97.182Z" transform="translate(-41.947 -67.127)" fill="#1db88d"/>
      <path id="Path_7826" data-name="Path 7826" d="M53.038,101.954s-15.8-16.063,2.85-30.054C55.629,71.9,70.656,90.554,53.038,101.954Z" transform="translate(-34.247 -71.9)" fill="#2d8a70"/>
      <path id="Path_7827" data-name="Path 7827" d="M77.218,82.8H42.5l5.441,24.1H71.259Z" transform="translate(-41.068 -54.559)" fill="#f6ca07"/>
    </g>
    <line id="Line_21" data-name="Line 21" y2="169.962" transform="translate(931.898 381.995)" fill="none" stroke="#3d415b" stroke-miterlimit="10" stroke-width="2"/>
    <g id="Group_3399" data-name="Group 3399" transform="translate(1185 369.566)">
      <g id="Group_3397" data-name="Group 3397">
        <rect id="Rectangle_173" data-name="Rectangle 173" width="133" height="41" rx="14" transform="translate(0 7.434)" fill="#fcaaa8"/>
        <path id="Rectangle_179" data-name="Rectangle 179" d="M0,0H133a0,0,0,0,1,0,0V88a14,14,0,0,1-14,14H14A14,14,0,0,1,0,88V0A0,0,0,0,1,0,0Z" transform="translate(0 28.434)" fill="#c7cbe8"/>
        <g id="Group_3436" data-name="Group 3436" transform="translate(8.183 17.041)">
          <circle id="Ellipse_43-2" data-name="Ellipse 43" cx="2.332" cy="2.332" r="2.332" transform="translate(0 0.04)" fill="#fff"/>
          <path id="Path_7786-2" data-name="Path 7786" d="M11.564,18.056a2.332,2.332,0,1,1-2.332-2.332C10.527,15.465,11.564,16.5,11.564,18.056Z" transform="translate(2.945 -15.685)" fill="#fff"/>
          <path id="Path_7787-2" data-name="Path 7787" d="M15.264,18.032A2.332,2.332,0,1,1,12.932,15.7,2.175,2.175,0,0,1,15.264,18.032Z" transform="translate(8.832 -15.66)" fill="#fff"/>
        </g>
      </g>
      <path id="Path_7828" data-name="Path 7828" d="M42.669,53.677H10.618A1.793,1.793,0,0,1,8.8,51.859V25.718A1.793,1.793,0,0,1,10.618,23.9h32.05a1.793,1.793,0,0,1,1.818,1.818V51.631A2,2,0,0,1,42.669,53.677Z" transform="translate(10.459 22.949)" fill="#fff"/>
      <path id="Path_7789-2" data-name="Path 7789" d="M104.119,46.282H9.523c-.911,0-1.823-1.036-1.823-2.591h0c0-1.3.729-2.591,1.823-2.591h94.6c.911,0,1.823,1.036,1.823,2.591h0C105.941,45.245,105.03,46.282,104.119,46.282Z" transform="translate(9.059 44.845)" fill="#fff"/>
      <path id="Path_7789-3" data-name="Path 7789" d="M104.119,46.282H9.523c-.911,0-1.823-1.036-1.823-2.591h0c0-1.3.729-2.591,1.823-2.591h94.6c.911,0,1.823,1.036,1.823,2.591h0C105.941,45.245,105.03,46.282,104.119,46.282Z" transform="translate(9.059 61.845)" fill="#fff"/>
      <g id="Group_3434" data-name="Group 3434" transform="translate(63.129 52.986)">
        <path id="Path_7791-2" data-name="Path 7791" d="M74.7,31.146H30.373A2.278,2.278,0,0,1,28.1,28.873h0A2.278,2.278,0,0,1,30.373,26.6H74.7a2.278,2.278,0,0,1,2.273,2.273h0A2.278,2.278,0,0,1,74.7,31.146Z" transform="translate(-28.1 -26.6)" fill="#fff"/>
      </g>
      <g id="Group_3438" data-name="Group 3438" transform="translate(63.129 67.023)">
        <path id="Path_7791-3" data-name="Path 7791" d="M62.854,31.146H29.8c-.848,0-1.7-.909-1.7-2.273h0c0-1.137.678-2.273,1.7-2.273H62.854c.848,0,1.7.909,1.7,2.273h0C64.55,30.01,63.871,31.146,62.854,31.146Z" transform="translate(-28.1 -26.6)" fill="#fff"/>
      </g>
    </g>
    <g id="Group_3403" data-name="Group 3403" transform="translate(917.677 142.434)">
      <circle id="Ellipse_41" data-name="Ellipse 41" cx="4.426" cy="4.426" r="4.426" fill="#fff"/>
      <path id="Path_7778" data-name="Path 7778" d="M141.053,73.326a4.426,4.426,0,1,1-4.426-4.426A4.538,4.538,0,0,1,141.053,73.326Z" transform="translate(-114.495 -68.9)" fill="#fff"/>
      <circle id="Ellipse_42" data-name="Ellipse 42" cx="4.426" cy="4.426" r="4.426" transform="translate(35.706)" fill="#fff"/>
    </g>
    <g id="Group_3431" data-name="Group 3431" transform="translate(825.326 137.668)">
      <g id="Group_3389" data-name="Group 3389" transform="translate(329.615)">
        <g id="Group_3387" data-name="Group 3387">
          <rect id="Rectangle_174" data-name="Rectangle 174" width="105" height="41" rx="8" transform="translate(0.059 -1.669)" fill="#f5e083"/>
          <path id="Rectangle_178" data-name="Rectangle 178" d="M0,0H105a0,0,0,0,1,0,0V51a7,7,0,0,1-7,7H7a7,7,0,0,1-7-7V0A0,0,0,0,1,0,0Z" transform="translate(0.059 13.331)" fill="#c7cbe8"/>
          <g id="Group_3437" data-name="Group 3437" transform="translate(8.32 4.149)">
            <circle id="Ellipse_43-3" data-name="Ellipse 43" cx="2.123" cy="2.123" r="2.123" transform="translate(0 0.036)" fill="#fff"/>
            <path id="Path_7786-3" data-name="Path 7786" d="M11.146,17.844a2.123,2.123,0,1,1-2.123-2.123C10.2,15.485,11.146,16.429,11.146,17.844Z" transform="translate(2.065 -15.685)" fill="#fff"/>
            <path id="Path_7787-3" data-name="Path 7787" d="M14.846,17.823A2.123,2.123,0,1,1,12.723,15.7,1.98,1.98,0,0,1,14.846,17.823Z" transform="translate(7.094 -15.664)" fill="#fff"/>
          </g>
        </g>
      </g>
      <rect id="Rectangle_170" data-name="Rectangle 170" width="20.678" height="31.659" rx="1" transform="translate(341.879 24.628)" fill="#f4f6fa"/>
      <rect id="Rectangle_171" data-name="Rectangle 171" width="54.765" height="3.596" rx="1.798" transform="translate(368.424 25.527)" fill="#f4f6fa"/>
      <rect id="Rectangle_171-2" data-name="Rectangle 171" width="49.448" height="3.596" rx="1.798" transform="translate(368.424 34.068)" fill="#f4f6fa"/>
      <rect id="Rectangle_171-3" data-name="Rectangle 171" width="50.719" height="3.596" rx="1.798" transform="translate(368.424 42.609)" fill="#f4f6fa"/>
      <rect id="Rectangle_171-4" data-name="Rectangle 171" width="38.659" height="3.596" rx="1.798" transform="translate(368.424 51.15)" fill="#f4f6fa"/>
    </g>
    <g id="Group_3435" data-name="Group 3435" transform="translate(1031.183 249.607)">
      <circle id="Ellipse_43-4" data-name="Ellipse 43" cx="2.332" cy="2.332" r="2.332" transform="translate(0 0.04)" fill="#434343"/>
      <path id="Path_7787-4" data-name="Path 7787" d="M15.264,18.032A2.332,2.332,0,1,1,12.932,15.7,2.175,2.175,0,0,1,15.264,18.032Z" transform="translate(8.832 -15.66)" fill="#434343"/>
    </g>
    <g id="Group_3461" data-name="Group 3461">
      <g id="Group_3401" data-name="Group 3401" transform="translate(961.264 354.397)">
        <path id="Path_7772" data-name="Path 7772" d="M87.195,161.6h19.484a.64.64,0,0,1,.595.595v14.874A7.681,7.681,0,0,1,99.54,184.8H94.334a7.681,7.681,0,0,1-7.734-7.734V162.195A.64.64,0,0,1,87.195,161.6Z" transform="translate(-78.739 -161.6)" fill="#f54e48"/>
        <path id="Path_7773" data-name="Path 7773" d="M92.151,181.568c-4.462-2.529-11.9-9.817-10.709-15.022a4.383,4.383,0,0,1,2.38-2.975c2.975-1.339,7.139.3,7.586.446l-1.339,2.975c-1.041-.446-3.421-1.041-4.611-.595-.3.149-.446.3-.595.892-.744,2.975,5.206,9.37,9.073,11.6Z" transform="translate(-81.314 -160.894)" fill="#f54e48"/>
      </g>
      <g id="Group_3535" data-name="Group 3535">
        <g id="Group_3460" data-name="Group 3460">
          <g id="Group_3459" data-name="Group 3459">
            <path id="Path_7831" data-name="Path 7831" d="M9584.714,486s2.714-4,1.429-6.143-1.571-5.286,0-7.429" transform="translate(-8606 -134)" fill="none" stroke="#f6ca07" stroke-width="1"/>
            <path id="Path_7832" data-name="Path 7832" d="M9584.715,481.571s2.4-1.619,1.266-3.062-1.393-2.931,0-4.375" transform="translate(-8602 -129.571)" fill="none" stroke="#f6ca07" stroke-width="1"/>
            <path id="Path_7833" data-name="Path 7833" d="M9584.715,481.571s2.4-.994,1.266-2.437-1.748-2.181-.355-3.625" transform="translate(-8610 -129.571)" fill="none" stroke="#f6ca07" stroke-width="1"/>
          </g>
        </g>
      </g>
    </g>
  </g>
</svg>
